<svg width="43" height="43" viewBox="0 0 43 43" fill="none" xmlns="http://www.w3.org/2000/svg">
<path d="M3.43919e-05 21.2438C-0.00376057 24.1196 0.578347 26.966 1.71085 29.6094L1.78125 29.7715C3.69692 34.1296 7.01865 37.7194 11.2152 39.9669C15.4118 42.2144 20.2409 42.9898 24.9301 42.169C25.0577 42.1464 25.1851 42.1229 25.3122 42.0986C26.6263 41.8439 27.913 41.4644 29.155 40.9654C29.3567 40.8843 29.557 40.8003 29.7558 40.7133C29.8916 40.6543 30.0274 40.5933 30.1619 40.5304C33.8412 38.8252 36.9564 36.1036 39.1402 32.6865C41.3241 29.2694 42.4855 25.2992 42.4877 21.2438C42.4877 9.51132 32.9763 0 21.2439 0C9.51136 0 3.43919e-05 9.51132 3.43919e-05 21.2438Z" fill="#6C63FF"/>
<path opacity="0.2" d="M24.9301 42.169C25.0577 42.1464 25.1851 42.1229 25.3122 42.0986C25.3952 39.6907 25.6799 34.7487 26.651 29.5729C27.1821 26.7402 27.9193 23.8364 28.9419 21.2407C29.2922 20.3425 29.6924 19.4646 30.1405 18.611C31.1738 16.6594 32.427 15.0165 33.9468 13.9034L33.723 13.5979C32.4591 14.5244 31.3231 15.825 30.3152 17.4998C30.0129 18.0013 29.7225 18.5364 29.4441 19.105C29.1455 19.7134 28.8608 20.3593 28.5899 21.0427C28.4171 21.4776 28.2501 21.9276 28.089 22.3927C27.3876 24.4122 26.7913 26.7163 26.3003 29.3052C26.1915 29.8771 26.088 30.4631 25.9898 31.0631C25.2286 35.7122 24.9992 40.0107 24.9301 42.169Z" fill="black"/>
<path opacity="0.2" d="M29.7559 40.7133C29.8916 40.6543 30.0274 40.5933 30.1619 40.5304C30.2932 39.1037 30.5346 37.3338 30.9758 35.6538C31.169 34.8993 31.4171 34.1598 31.7181 33.4414C32.2215 32.263 32.8733 31.2611 33.7161 30.6433L33.4924 30.3384C32.6099 30.9846 31.9293 32.0059 31.4032 33.2007C30.8105 34.547 30.4152 36.1139 30.1518 37.611C29.9563 38.7228 29.8332 39.797 29.7559 40.7133Z" fill="black"/>
<path opacity="0.2" d="M36.0604 13.8946C35.0159 13.8946 34.1693 13.0479 34.1693 12.0035C34.1693 10.959 35.0159 10.1124 36.0604 10.1124C37.1048 10.1124 37.9515 10.959 37.9515 12.0035C37.9515 13.0479 37.1048 13.8946 36.0604 13.8946Z" fill="black"/>
<path opacity="0.2" d="M35.4514 30.1737C34.4069 30.1737 33.5602 29.3271 33.5602 28.2826C33.5602 27.2382 34.4069 26.3915 35.4514 26.3915C36.4958 26.3915 37.3425 27.2382 37.3425 28.2826C37.3425 29.3271 36.4958 30.1737 35.4514 30.1737Z" fill="black"/>
<path opacity="0.2" d="M28.5526 15.18C28.9536 17.4425 28.0683 19.4911 28.0683 19.4911C28.0683 19.4911 26.5329 17.8716 26.1318 15.6091C25.7308 13.3466 26.6161 11.2979 26.6161 11.2979C26.6161 11.2979 28.1515 12.9175 28.5526 15.18Z" fill="black"/>
<path opacity="0.2" d="M34.8375 20.5506C32.6795 21.3397 30.511 20.8333 30.511 20.8333C30.511 20.8333 31.8414 19.0476 33.9994 18.2585C36.1574 17.4694 38.3259 17.9757 38.3259 17.9757C38.3259 17.9757 36.9955 19.7615 34.8375 20.5506Z" fill="black"/>
<path opacity="0.2" d="M35.2035 34.9664C33.6909 35.5195 32.1688 35.1587 32.1688 35.1587C32.1688 35.1587 33.0991 33.9011 34.6117 33.348C36.1243 32.7949 37.6464 33.1557 37.6464 33.1557C37.6464 33.1557 36.7161 34.4133 35.2035 34.9664Z" fill="black"/>
<path d="M21.2875 25.9482C16.7135 25.9482 13.0055 22.2402 13.0055 17.6662C13.0055 13.0922 16.7135 9.38428 21.2875 9.38428C25.8615 9.38428 29.5695 13.0922 29.5695 17.6662C29.5695 22.2402 25.8615 25.9482 21.2875 25.9482Z" fill="#D0CDE1"/>
<path d="M24.5226 24.0071C24.5226 24.0071 23.4874 28.9245 23.4874 29.4421C23.4874 29.9597 18.57 32.289 18.57 32.289L14.1702 31.5126L12.6173 26.854C12.6173 26.854 15.2054 22.9718 15.2054 21.419L24.5226 24.0071Z" fill="#D0CDE1"/>
<path d="M1.71086 29.6094L1.78125 29.7715C3.69693 34.1296 7.01866 37.7194 11.2152 39.9669C15.4118 42.2144 20.2409 42.9898 24.9301 42.169C25.0577 42.1464 25.1851 42.1229 25.3122 42.0986C26.6263 41.8439 27.913 41.4644 29.155 40.9654C29.3567 40.8843 29.557 40.8003 29.7558 40.7133C29.8916 40.6543 30.0274 40.5933 30.1619 40.5304C31.381 39.9656 32.5437 39.2863 33.6344 38.5016L34.6161 35.6538L34.0643 35.2327L32.9292 34.366L31.7181 33.4414L31.4032 33.2007L26.651 29.5729L26.3003 29.3052L23.8302 27.4196L23.8296 27.419C23.8296 27.419 21.1584 31.7715 17.276 30.4773C13.3937 29.1832 13.4786 25.4725 13.4786 25.4725L1.71086 29.6094Z" fill="#2F2E41"/>
<path d="M28.4696 10.9937C28.4696 10.9937 25.8401 5.29651 20.8002 6.61125C15.7604 7.926 12.9118 9.89812 12.6926 11.8702C12.4735 13.8424 12.8022 16.8005 12.8022 16.8005C12.8022 16.8005 13.35 12.7467 16.856 13.6232C20.362 14.4997 25.8401 13.8424 25.8401 13.8424L26.7166 21.7308C26.7166 21.7308 27.7026 20.3065 28.7983 21.183C29.8939 22.0595 31.9756 12.7467 28.4696 10.9937Z" fill="#2F2E41"/>
<path d="M29.155 40.9654C29.3568 40.8843 29.557 40.8003 29.7559 40.7133C29.8916 40.6542 30.0274 40.5933 30.1619 40.5304C32.1782 39.5954 34.0358 38.3506 35.6671 36.841C35.0894 36.0541 34.6162 35.6538 34.6162 35.6538H30.7338L30.1518 37.611L29.155 40.9654Z" fill="#2F2E41"/>
<path d="M5.11181 29.1832L1.78131 29.7715C2.67259 31.8019 3.87632 33.6803 5.34875 35.3383L5.11181 29.1832Z" fill="#2F2E41"/>
</svg>
