<svg width="24" height="24" viewBox="0 0 24 24" fill="none" xmlns="http://www.w3.org/2000/svg">
<path d="M11.523 0C8.46692 0 5.536 1.21403 3.37501 3.37501C1.21403 5.536 0 8.46692 0 11.523C0 17.8871 5.15917 23.0454 11.523 23.0454C14.579 23.0454 17.5099 21.8314 19.6708 19.6705C21.8317 17.5096 23.0457 14.5787 23.0457 11.5227C23.0457 8.46671 21.8317 5.53587 19.6708 3.37494C17.5099 1.21401 14.579 0 11.523 0ZM10.3784 5.45353C10.3791 5.15039 10.5 4.85991 10.7146 4.64581C10.9293 4.43171 11.22 4.31147 11.5232 4.31147C11.8263 4.31147 12.1171 4.43171 12.3317 4.64581C12.5463 4.85991 12.6672 5.15039 12.6679 5.45353V8.86745C12.6672 9.17059 12.5463 9.46107 12.3317 9.67517C12.1171 9.88927 11.8263 10.0095 11.5232 10.0095C11.22 10.0095 10.9293 9.88927 10.7146 9.67517C10.5 9.46107 10.3791 9.17059 10.3784 8.86745V5.45353ZM11.523 17.379C10.1565 17.3792 8.83315 16.9006 7.78287 16.0264C6.73258 15.1522 6.02177 13.9377 5.77396 12.5938C5.52614 11.25 5.75699 9.86182 6.42637 8.67051C7.09576 7.4792 8.16138 6.56006 9.43806 6.07283V8.1842C8.70881 8.63741 8.14708 9.31588 7.83791 10.1169C7.52875 10.9179 7.48898 11.7978 7.72464 12.6235C7.96029 13.4491 8.45853 14.1755 9.14393 14.6926C9.82932 15.2097 10.6646 15.4895 11.5232 15.4895C12.3818 15.4895 13.217 15.2097 13.9024 14.6926C14.5878 14.1755 15.086 13.4491 15.3217 12.6235C15.5573 11.7978 15.5176 10.9179 15.2084 10.1169C14.8992 9.31588 14.3375 8.63741 13.6083 8.1842V6.07283C14.8848 6.56019 15.9503 7.47938 16.6196 8.67068C17.2888 9.86199 17.5196 11.2501 17.2718 12.5939C17.0239 13.9376 16.3132 15.1521 15.2629 16.0263C14.2127 16.9005 12.8894 17.3791 11.523 17.379Z" fill="black"/>
</svg>
